<?xml version="1.0" encoding="UTF-8" standalone="no"?>
<!-- Created with Inkscape (http://www.inkscape.org/) -->

<svg
   xmlns:dc="http://purl.org/dc/elements/1.1/"
   xmlns:cc="http://creativecommons.org/ns#"
   xmlns:rdf="http://www.w3.org/1999/02/22-rdf-syntax-ns#"
   xmlns:svg="http://www.w3.org/2000/svg"
   xmlns="http://www.w3.org/2000/svg"
   xmlns:sodipodi="http://sodipodi.sourceforge.net/DTD/sodipodi-0.dtd"
   xmlns:inkscape="http://www.inkscape.org/namespaces/inkscape"
   width="78.596848mm"
   height="68.959618mm"
   viewBox="0 0 278.49277 244.3451"
   id="svg2"
   version="1.1"
   inkscape:version="0.91 r13725"
   sodipodi:docname="debby-no-record.svg">
  <defs
     id="defs4" />
  <sodipodi:namedview
     id="base"
     pagecolor="#ffffff"
     bordercolor="#666666"
     borderopacity="1.0"
     inkscape:pageopacity="0.0"
     inkscape:pageshadow="2"
     inkscape:zoom="2.3087036"
     inkscape:cx="130.48835"
     inkscape:cy="130.46517"
     inkscape:document-units="px"
     inkscape:current-layer="layer1"
     showgrid="false"
     inkscape:window-width="1401"
     inkscape:window-height="855"
     inkscape:window-x="39"
     inkscape:window-y="1"
     inkscape:window-maximized="1"
     fit-margin-top="0"
     fit-margin-left="0"
     fit-margin-right="0"
     fit-margin-bottom="0" />
  <metadata
     id="metadata7">
    <rdf:RDF>
      <cc:Work
         rdf:about="">
        <dc:format>image/svg+xml</dc:format>
        <dc:type
           rdf:resource="http://purl.org/dc/dcmitype/StillImage" />
        <dc:title></dc:title>
      </cc:Work>
    </rdf:RDF>
  </metadata>
  <g
     inkscape:label="Layer 1"
     inkscape:groupmode="layer"
     id="layer1"
     transform="translate(568.73126,-311.99963)">
    <g
       id="g3696"
       transform="translate(-592.55345,348.37973)">
      <g
         id="g3602">
        <path
           id="path3604"
           d="m 40.634,148.18 c 6.989,19.495 -3.968,55.375 -3.968,55.375 l 63.346,0 0,-110.23 -69.52,13.325 c 10e-4,-0.001 3.823,23.903 10.142,41.53 z"
           style="fill:#432b1f"
           inkscape:connector-curvature="0" />
        <path
           id="path3606"
           d="m 159.452,148.18 c -6.989,19.495 3.969,55.375 3.969,55.375 l -63.347,0 0,-110.23 69.519,13.325 c 0,-0.001 -3.821,23.903 -10.141,41.53 z"
           style="fill:#432b1f"
           inkscape:connector-curvature="0" />
        <g
           id="g3608">
          <g
             id="g3610">
            <rect
               id="rect3612"
               height="32.922001"
               width="29.395"
               style="fill:#fdcc9b"
               y="157.69901"
               x="85.315002" />
            <path
               id="path3614"
               d="m 85.315,161.577 c 0,0 12.365,7.874 29.395,6.05 l 0,-9.928 -29.395,0 0,3.878 z"
               style="fill:#fcbc85"
               inkscape:connector-curvature="0" />
            <ellipse
               id="ellipse3616"
               ry="16.364"
               rx="14.343"
               cy="106.649"
               cx="42.928001"
               style="fill:#fcbc85" />
            <ellipse
               id="ellipse3618"
               ry="16.364"
               rx="14.343"
               cy="106.649"
               cx="157.09599"
               style="fill:#fcbc85" />
            <path
               id="path3620"
               d="m 157.038,75.394 c 0,-24.103 -17.637,-41.741 -57.025,-41.741 -39.39,0 -57.026,17.637 -57.026,41.741 0,24.104 -4.115,87.597 57.026,87.597 61.14,-0.001 57.025,-63.493 57.025,-87.597 z"
               style="fill:#fdcc9b"
               inkscape:connector-curvature="0" />
            <g
               id="g3622">
              <g
                 id="g3624">
                <ellipse
                   id="ellipse3626"
                   ry="6.7610002"
                   rx="6.1729999"
                   cy="102.731"
                   cx="72.237"
                   style="fill:#3b2519" />
                <circle
                   id="circle3628"
                   r="1.846"
                   cy="99.746002"
                   cx="69.544998"
                   style="fill:#ffffff" />
              </g>
              <path
                 id="path3630"
                 d="m 62.362,88.154 c 2.918,1.118 7.606,-3.798 18.334,0.478 1.956,0.78 3.124,-6.668 -8.377,-6.668 -9.957,0 -11.721,5.515 -9.957,6.19 z"
                 style="fill:#51362a"
                 inkscape:connector-curvature="0" />
              <g
                 id="g3632">
                <ellipse
                   id="ellipse3634"
                   ry="6.7610002"
                   rx="6.1729999"
                   cy="102.731"
                   cx="128.55"
                   style="fill:#3b2519" />
                <circle
                   id="circle3636"
                   r="1.847"
                   cy="99.746002"
                   cx="125.859"
                   style="fill:#ffffff" />
              </g>
              <path
                 id="path3638"
                 d="m 137.663,88.154 c -2.919,1.118 -7.605,-3.798 -18.335,0.478 -1.955,0.78 -3.123,-6.668 8.378,-6.668 9.957,0 11.72,5.515 9.957,6.19 z"
                 style="fill:#51362a"
                 inkscape:connector-curvature="0" />
            </g>
            <path
               id="path3640"
               d="m 100.012,126.511 c -6.1,0 -9.774,-4.556 -9.774,-2.352 0,2.205 1.764,6.394 9.774,6.394 8.01,0 9.773,-4.189 9.773,-6.394 0.001,-2.204 -3.673,2.352 -9.773,2.352 z"
               style="fill:#fcbc85"
               inkscape:connector-curvature="0" />
            <path
               id="path3642"
               d="m 100.012,146.782 c -2.109,0 -3.381,-1.576 -3.381,-0.813 0,0.763 0.61,2.211 3.381,2.211 2.771,0 3.381,-1.448 3.381,-2.211 0,-0.763 -1.271,0.813 -3.381,0.813 z"
               style="fill:#fcbc85"
               inkscape:connector-curvature="0" />
            <path
               id="path3644"
               d="m 100.012,141.165 c -9.668,0 -15.493,-3.936 -15.493,-2.939 0,0.998 2.796,4.924 15.493,4.924 12.697,0 15.492,-3.926 15.492,-4.924 0,-0.998 -5.824,2.939 -15.492,2.939 z"
               style="fill:#f7945e"
               inkscape:connector-curvature="0" />
          </g>
          <circle
             id="circle3646"
             r="8.3780003"
             cy="124.336"
             cx="64.297997"
             style="fill:#f9aa8d" />
          <circle
             id="circle3648"
             r="8.3769999"
             cy="124.336"
             cx="136.756"
             style="fill:#f9aa8d" />
        </g>
        <path
           id="path3650"
           d="m 100.012,170.927 0,37.038 -64.373,0 c 0,-14.992 30.569,-37.038 64.373,-37.038 z"
           style="fill:#694b74"
           inkscape:connector-curvature="0" />
        <path
           id="path3652"
           d="m 100.012,170.927 0,37.038 64.372,0 c 0,-14.992 -30.568,-37.038 -64.372,-37.038 z"
           style="fill:#694b74"
           inkscape:connector-curvature="0" />
        <path
           id="path3654"
           d="m 99.821,170.927 c -7.271,0 -14.715,1.005 -21.933,2.72 0.049,0.063 8.006,10.214 21.933,10.214 12.898,0 21.472,-8.693 22.715,-10.03 -7.46,-1.831 -15.181,-2.904 -22.715,-2.904 z"
           style="fill:#563c60"
           inkscape:connector-curvature="0" />
        <path
           id="path3656"
           d="m 85.315,172.209 c 0,0 4.299,5.332 14.697,5.332 10.398,0 14.697,-5.332 14.697,-5.332 0,0 -15.248,-5.552 -29.394,0 z"
           style="fill:#fdcc9b"
           inkscape:connector-curvature="0" />
        <path
           id="path3658"
           d="M 151.747,24.541 C 114.709,-19.552 44.162,-1.915 28.584,58.933 13.007,119.78 40.634,148.18 40.634,148.18 30.04,112.321 54.744,75.247 75.908,74.806 97.073,74.365 130.583,62.46 130.583,62.46 c 0,0 5.625,28.622 23.81,39.132 13.669,7.9 8.477,31.122 4.949,46.588 13.227,-5.031 52.37,-105.561 -7.595,-123.639 z"
           style="fill:#51362a"
           inkscape:connector-curvature="0" />
      </g>
      <g
         id="g3660" />
      <g
         id="g3662" />
      <g
         id="g3664" />
      <g
         id="g3666" />
      <g
         id="g3668" />
      <g
         id="g3670" />
      <g
         id="g3672" />
      <g
         id="g3674" />
      <g
         id="g3676" />
      <g
         id="g3678" />
      <g
         id="g3680" />
      <g
         id="g3682" />
      <g
         id="g3684" />
      <g
         id="g3686" />
      <g
         id="g3688" />
    </g>
    <g
       id="g3934"
       transform="matrix(3.824794,0,0,3.7796449,-416.45669,310.88841)">
      <g
         id="g3894">
        <path
           id="path3896"
           d="m 7.282,32.706 c -0.081,0 -0.163,-0.02 -0.237,-0.06 -0.162,-0.087 -0.263,-0.257 -0.263,-0.44 l 0,-7.124 C 2.405,22.806 0,18.821 0,13.828 0,6.112 7.093,0.294 16.5,0.294 c 9.407,0 16.5,5.818 16.5,13.534 0,7.715 -7.093,13.533 -16.5,13.533 -0.309,0 -0.612,-0.017 -0.916,-0.033 l -0.02,-10e-4 -8.007,5.296 C 7.474,32.678 7.378,32.706 7.282,32.706 Z M 16.5,1.294 C 7.664,1.294 1,6.683 1,13.828 c 0,3.323 1.128,7.842 6.503,10.499 0.17,0.084 0.278,0.258 0.278,0.448 l 0,6.501 7.369,-4.874 c 0.09,-0.06 0.199,-0.095 0.302,-0.082 l 0.186,0.01 c 0.286,0.016 0.571,0.031 0.861,0.031 8.836,0 15.5,-5.388 15.5,-12.533 C 31.999,6.683 25.336,1.294 16.5,1.294 Z"
           inkscape:connector-curvature="0" />
      </g>
      <g
         id="g3898" />
      <g
         id="g3900" />
      <g
         id="g3902" />
      <g
         id="g3904" />
      <g
         id="g3906" />
      <g
         id="g3908" />
      <g
         id="g3910" />
      <g
         id="g3912" />
      <g
         id="g3914" />
      <g
         id="g3916" />
      <g
         id="g3918" />
      <g
         id="g3920" />
      <g
         id="g3922" />
      <g
         id="g3924" />
      <g
         id="g3926" />
    </g>
    <text
       xml:space="preserve"
       style="font-style:normal;font-variant:normal;font-weight:500;font-stretch:normal;font-size:16.25px;line-height:125%;font-family:'.PingFang HK';-inkscape-font-specification:'.PingFang HK, Medium';text-align:start;letter-spacing:0px;word-spacing:0px;writing-mode:lr-tb;text-anchor:start;fill:#000000;fill-opacity:1;stroke:none;stroke-width:1px;stroke-linecap:butt;stroke-linejoin:miter;stroke-opacity:1"
       x="-406.94995"
       y="368.31076"
       id="text3953"
       sodipodi:linespacing="125%"><tspan
         sodipodi:role="line"
         id="tspan3955"
         x="-406.94995"
         y="368.31076">還沒有記錄哦！</tspan></text>
  </g>
</svg>
